<svg width="60" height="109" viewBox="0 0 60 109" fill="none" xmlns="http://www.w3.org/2000/svg">
<path fill-rule="evenodd" clip-rule="evenodd" d="M12.914 100.755C12.1821 100.162 11.6903 99.3005 11.5612 98.3324L4.36012 44.5131H3.37843H2.34156C1.12037 44.5131 0.121094 43.5065 0.121094 42.2763V36.4608C0.121094 35.8762 0.346656 35.3424 0.714107 34.9429C0.346656 34.5434 0.121094 34.0096 0.121094 33.425V30.8773C0.121094 29.6471 1.12037 28.6405 2.34156 28.6405C8.12922 28.6405 13.9169 28.6405 19.7045 28.6405L19.9398 27.1978C20.075 26.3683 20.7729 25.7715 21.6073 25.7715H26.7425L31.118 1.64813C31.3156 0.560271 32.3579 -0.165371 33.4379 0.0325325L36.4799 0.592646C37.5599 0.792382 38.2802 1.84176 38.0831 2.93023L33.9399 25.7709H38.393C39.2273 25.7709 39.9253 26.3683 40.0605 27.1972L40.2957 28.6399H53.1984H56.6218H57.6587C58.8799 28.6399 59.8792 29.6465 59.8792 30.8767V33.4244C59.8792 34.009 59.6536 34.5428 59.2862 34.9423C59.6536 35.3418 59.8792 35.8756 59.8792 36.4601V42.2757C59.8792 43.5059 58.8799 44.5125 57.6587 44.5125H56.6218H55.4619L48.2614 98.3318C48.1304 99.3005 47.6387 100.164 46.905 100.756C46.6334 102.736 46.3629 104.715 46.0955 106.694C45.9427 107.826 44.9968 108.659 43.8623 108.659C34.5554 108.659 25.2478 108.659 15.9409 108.659C14.8058 108.659 13.8593 107.825 13.7077 106.692C13.4433 104.713 13.1783 102.734 12.9134 100.754L12.914 100.755Z" fill="black"/>
<path fill-rule="evenodd" clip-rule="evenodd" d="M34.7517 8.22L35.7364 2.78988L33.3449 2.34949L33.2109 3.08796L34.7517 8.22Z" fill="#F38AA8"/>
<path fill-rule="evenodd" clip-rule="evenodd" d="M34.2808 10.8134L32.7406 5.68262L30.9658 15.4666L33.9133 12.8419L34.2808 10.8134Z" fill="#F05478"/>
<path fill-rule="evenodd" clip-rule="evenodd" d="M33.5658 14.752L30.6183 17.3766L30.3291 18.9733L32.2464 22.0286L33.5658 14.752Z" fill="#EE303B"/>
<path fill-rule="evenodd" clip-rule="evenodd" d="M31.9303 23.7738L30.013 20.7179L28.7676 27.5834L31.7387 24.8305L31.9303 23.7738Z" fill="#EE2745"/>
<path fill-rule="evenodd" clip-rule="evenodd" d="M31.3827 26.7947L27.9805 29.9471L30.8158 33.0323L32.0309 30.2018L32.2274 28.0682H31.1511L31.3827 26.7947Z" fill="#ED202E"/>
<path fill-rule="evenodd" clip-rule="evenodd" d="M29.5412 33.4098L26.9648 30.6062L25.127 31.2408L26.5543 33.4098H29.5412Z" fill="#ED1A3A"/>
<path fill-rule="evenodd" clip-rule="evenodd" d="M24.7396 30.1034L26.5386 29.4822V28.0682H24.585L24.7396 30.1034Z" fill="#ED1275"/>
<path fill-rule="evenodd" clip-rule="evenodd" d="M23.5912 30.7612L23.3875 28.0682H22.7787C22.6101 28.0682 22.4404 28.1421 22.3045 28.2606C22.1651 28.3821 22.065 28.5434 22.0377 28.7156L21.6909 30.9384H20.3721L22.0189 33.1031L23.5912 30.7625V30.7612Z" fill="#EC0D83"/>
<path fill-rule="evenodd" clip-rule="evenodd" d="M24.1984 32.0057L23.2549 33.4105H25.1225L24.1984 32.0057Z" fill="#DA2D92"/>
<path fill-rule="evenodd" clip-rule="evenodd" d="M20.7493 33.4106L18.8683 30.9374H18.4682L16.2295 33.4106H20.7493Z" fill="#DE2792"/>
<path fill-rule="evenodd" clip-rule="evenodd" d="M14.6381 33.3818L16.8513 30.9374H12.0908L14.6381 33.3818Z" fill="#ED157D"/>
<path fill-rule="evenodd" clip-rule="evenodd" d="M12.9372 33.4114L10.5567 31.127L7.62012 33.4114H12.9372Z" fill="#ED157D"/>
<path fill-rule="evenodd" clip-rule="evenodd" d="M5.78881 33.3182L8.84848 30.9385H3.37795C3.21848 30.9385 3.0681 30.9788 2.93652 31.0509L5.78881 33.3188V33.3182Z" fill="#ED157D"/>
<path fill-rule="evenodd" clip-rule="evenodd" d="M3.98195 33.4107L2.44727 32.1897V33.4107H3.98195Z" fill="#ED157D"/>
<path fill-rule="evenodd" clip-rule="evenodd" d="M32.9207 31.1526L31.9512 33.4102H37.4866L32.9207 31.1526Z" fill="#ED202E"/>
<path fill-rule="evenodd" clip-rule="evenodd" d="M33.2487 29.9788L38.9817 32.813H40.7802L42.3258 30.9384H38.3099L37.9625 28.7156C37.9352 28.5434 37.8351 28.3821 37.6957 28.2606C37.5598 28.1421 37.3907 28.0682 37.2209 28.0682H33.4239L33.248 29.9782L33.2487 29.9788Z" fill="#EE303B"/>
<path fill-rule="evenodd" clip-rule="evenodd" d="M43.752 31.0846L41.8359 33.41H48.3573L43.752 31.0846Z" fill="#F45B37"/>
<path fill-rule="evenodd" clip-rule="evenodd" d="M46.1191 30.9374L49.8325 32.8126H51.0506L53.1195 30.9374H46.1191Z" fill="#FBA933"/>
<path fill-rule="evenodd" clip-rule="evenodd" d="M54.8035 31.0299L52.1768 33.4109H56.8615L54.8605 31.0299H54.8035Z" fill="#FBAC31"/>
<path fill-rule="evenodd" clip-rule="evenodd" d="M56.3477 30.9374L57.5531 32.371V31.8744C57.5531 31.6166 57.4482 31.3814 57.2802 31.2116C57.1117 31.0418 56.8794 30.9374 56.6223 30.9374H56.3483H56.3477Z" fill="#FBAC31"/>
<path fill-rule="evenodd" clip-rule="evenodd" d="M40.26 33.4435L40.7809 32.8119H38.9824L40.26 33.4435Z" fill="#EE303B"/>
<path fill-rule="evenodd" clip-rule="evenodd" d="M49.832 32.8119L50.6142 33.2065L51.0502 32.8119H49.832Z" fill="#FBA933"/>
<path fill-rule="evenodd" clip-rule="evenodd" d="M57.1553 36.117H52.2256L54.3697 42.1195H56.6229C56.8781 42.1195 57.111 42.0132 57.282 41.8434C57.4493 41.6742 57.5536 41.4402 57.5536 41.1813V36.5183C57.5536 36.4071 57.5088 36.3064 57.4372 36.2337C57.3657 36.1616 57.265 36.1164 57.1546 36.1164L57.1553 36.117Z" fill="#FBAC31"/>
<path fill-rule="evenodd" clip-rule="evenodd" d="M53.341 42.7863L51.437 37.4545L49.1662 45.3053L45.4359 42.258L40.8652 50.9345L52.7492 47.211L53.341 42.7863Z" fill="#FBA933"/>
<path fill-rule="evenodd" clip-rule="evenodd" d="M48.5235 43.2347L50.5815 36.1175H45.4111L45.7871 40.9985L48.5235 43.2347Z" fill="#FAA439"/>
<path fill-rule="evenodd" clip-rule="evenodd" d="M44.5388 40.3413L44.2132 36.1175H34.8535L44.5388 40.3413Z" fill="#EF4433"/>
<path fill-rule="evenodd" clip-rule="evenodd" d="M44.4296 41.602L31.8562 36.1175H31.6016L39.6127 50.7464L44.4296 41.602Z" fill="#ED202E"/>
<path fill-rule="evenodd" clip-rule="evenodd" d="M38.819 51.7875L31.1583 37.798L29.1422 50.4113L25.6338 61.4395L38.819 51.7875Z" fill="#ED1C28"/>
<path fill-rule="evenodd" clip-rule="evenodd" d="M28.0551 49.6519L29.9742 37.6464L17.9326 49.2127C17.9369 49.2469 17.9411 49.2817 17.946 49.3171L28.0545 49.6519H28.0551Z" fill="#ED1B2B"/>
<path fill-rule="evenodd" clip-rule="evenodd" d="M17.7463 47.7309L29.8377 36.1175H16.2832C16.7707 39.9882 17.2582 43.8601 17.7463 47.7309Z" fill="#E90C8E"/>
<path fill-rule="evenodd" clip-rule="evenodd" d="M2.67563 41.7968L12.5319 36.1175H2.84662C2.73565 36.1175 2.63621 36.1627 2.56345 36.2348C2.49311 36.3087 2.44824 36.4088 2.44824 36.5194V41.1824C2.44824 41.4169 2.53374 41.6319 2.67563 41.7968Z" fill="#E90C8E"/>
<path fill-rule="evenodd" clip-rule="evenodd" d="M14.5775 51.3985C14.2925 51.7705 14.1464 52.2512 14.2101 52.749C15.8496 65.65 17.3534 77.482 19.067 90.9663C19.13 91.4635 19.3908 91.8917 19.7594 92.1788C20.5689 92.8092 21.6961 92.6406 22.3061 91.849C22.5917 91.4764 22.7378 90.9957 22.6742 90.496C21.0303 77.5657 19.5357 65.8015 17.8179 52.2854C17.7548 51.787 17.4935 51.3588 17.1242 51.0711C16.3353 50.4573 15.2021 50.5837 14.5775 51.3979V51.3985Z" fill="#8A489C"/>
<path fill-rule="evenodd" clip-rule="evenodd" d="M20.4678 63.7079L22.1528 76.9637L37.9271 77.8665L24.2617 63.6132L20.4678 63.7079Z" fill="#DE2792"/>
<path fill-rule="evenodd" clip-rule="evenodd" d="M20.3152 62.5105L24.0697 62.4177L27.7509 50.844L18.2803 50.5294C18.6586 50.9661 18.9175 51.5165 18.9958 52.1328L20.3146 62.5105H20.3152Z" fill="#EE0D7B"/>
<path fill-rule="evenodd" clip-rule="evenodd" d="M26.8467 64.5801L38.8167 77.0651V69.3273L26.8467 64.5801Z" fill="#EC1A64"/>
<path fill-rule="evenodd" clip-rule="evenodd" d="M27.21 63.431L39.4917 68.301L48.604 67.1905L39.6293 62.6119L27.21 63.431Z" fill="#ED1D57"/>
<path fill-rule="evenodd" clip-rule="evenodd" d="M40.0127 69.451V77.1814L49.6167 68.28L40.0127 69.451Z" fill="#ED2062"/>
<path fill-rule="evenodd" clip-rule="evenodd" d="M41.2021 62.068L50.1513 66.6332L51.3028 58.022L41.2021 62.068Z" fill="#FBA933"/>
<path fill-rule="evenodd" clip-rule="evenodd" d="M40.335 61.1235L51.4847 56.6584L52.5731 48.5267L40.1992 52.4035L40.335 61.1235Z" fill="#FBA933"/>
<path fill-rule="evenodd" clip-rule="evenodd" d="M39.1475 61.4395L39.0184 53.1288L26.5293 62.2708L39.1475 61.4395Z" fill="#ED2039"/>
<path fill-rule="evenodd" clip-rule="evenodd" d="M38.2886 79.0907L22.3057 78.1757L23.5032 87.5951L33.6348 85.514L38.2886 79.0907Z" fill="#DE2792"/>
<path fill-rule="evenodd" clip-rule="evenodd" d="M33.6165 86.7438L23.6553 88.7894L23.8536 90.3501C23.9476 91.0922 23.7645 91.8075 23.3867 92.3896C23.3898 92.4189 23.394 92.4464 23.397 92.4745L37.3359 95.8248L33.6165 86.7432V86.7438Z" fill="#8A489C"/>
<path fill-rule="evenodd" clip-rule="evenodd" d="M36.936 96.9672L23.5586 93.7518C24.0625 97.7386 24.5664 101.725 25.0702 105.71L36.936 96.9672Z" fill="#8A489C"/>
<path fill-rule="evenodd" clip-rule="evenodd" d="M37.834 97.7953L26.3369 106.267H38.6016L37.834 97.7953Z" fill="#8A489C"/>
<path fill-rule="evenodd" clip-rule="evenodd" d="M39.0156 97.6258L39.799 106.266H42.578C42.9315 106.266 43.2534 106.138 43.4972 105.924C43.7434 105.706 43.9144 105.4 43.9629 105.047L44.6523 100.026L39.0156 97.6264V97.6258Z" fill="#9A4B9D"/>
<path fill-rule="evenodd" clip-rule="evenodd" d="M39.3131 96.4509L45.2887 98.9937C45.4379 98.9058 45.5683 98.7903 45.6738 98.6541C45.8217 98.4635 45.9224 98.2302 45.9569 97.9712L47.4437 86.8581L39.3125 96.4515L39.3131 96.4509Z" fill="#9F4B9D"/>
<path fill-rule="evenodd" clip-rule="evenodd" d="M38.5107 95.5477L47.7382 84.6599L47.7407 84.6434L34.8223 86.54L38.5107 95.5477Z" fill="#ED1275"/>
<path fill-rule="evenodd" clip-rule="evenodd" d="M35.2969 85.2545L47.906 83.4025L49.7239 69.8156L39.8561 78.9607L35.2969 85.2545Z" fill="#EE2166"/>
<path fill-rule="evenodd" clip-rule="evenodd" d="M7.6026 51.8308L10.3779 43.3246H6.46387L7.6026 51.8308Z" fill="#8A489C"/>
<path fill-rule="evenodd" clip-rule="evenodd" d="M13.6369 62.667L8.21484 56.4062L9.1171 63.1502L13.6369 62.667Z" fill="#8A489C"/>
<path fill-rule="evenodd" clip-rule="evenodd" d="M13.1151 75.8568L9.77344 68.0604L11.7016 82.4682L13.1151 75.8568Z" fill="#8A489C"/>
<path fill-rule="evenodd" clip-rule="evenodd" d="M9.47363 64.3226L14.2887 75.5573L14.3239 75.9195L12.1962 85.8702L17.7704 90.9216L14.3239 63.8028L9.47363 64.3226Z" fill="#8A489C"/>
<path fill-rule="evenodd" clip-rule="evenodd" d="M17.8581 92.6192L12.3984 87.671L13.7767 97.9699C13.8112 98.2289 13.9119 98.4628 14.0598 98.6528C14.129 98.7426 14.209 98.8226 14.2981 98.8923L17.8581 92.6192Z" fill="#8A489C"/>
<path fill-rule="evenodd" clip-rule="evenodd" d="M23.6755 106.266L15.2041 100.954L15.7516 105.048C15.7989 105.4 15.9699 105.705 16.2149 105.922C16.4593 106.138 16.7824 106.267 17.1366 106.267H23.6755V106.266Z" fill="#8A489C"/>
<path fill-rule="evenodd" clip-rule="evenodd" d="M15.2805 99.5857L23.6688 104.845L22.2305 93.4537L22.2196 93.4519L22.2124 93.3969C21.894 93.5716 21.5399 93.6913 21.1591 93.7396C20.3381 93.8453 19.5492 93.604 18.9417 93.1318L15.2793 99.5863L15.2805 99.5857Z" fill="#8A489C"/>
<path fill-rule="evenodd" clip-rule="evenodd" d="M13.5442 50.6646C14.0153 50.0513 14.7193 49.6164 15.5415 49.5108C15.9211 49.4613 16.2934 49.4876 16.6439 49.5749L16.6057 49.2756L16.545 48.798L16.5875 48.7576L14.9915 36.1175H14.8497L4.43066 42.1199H5.95868H6.30248H12.0277L8.03059 54.368L13.9995 61.2597L12.9372 52.9002C12.8317 52.0731 13.0724 51.2785 13.543 50.664L13.5442 50.6646Z" fill="#AF4499"/>
</svg>
