<svg width="24" height="24" viewBox="0 0 24 24" fill="none" xmlns="http://www.w3.org/2000/svg">
<path fill-rule="evenodd" clip-rule="evenodd" d="M15.8843 18.7522C16.0755 18.9116 16.3161 18.9986 16.5643 18.9981C16.731 19.0082 16.8977 18.9786 17.0509 18.9117C17.2042 18.8449 17.3395 18.7426 17.4461 18.6132L22.7583 12.1989C22.9146 12.0076 23 11.7676 23 11.52C23 11.2724 22.9146 11.0324 22.7583 10.8412L17.6267 4.42681C17.5388 4.30903 17.4276 4.21081 17.3001 4.13833C17.1726 4.06584 17.0316 4.02066 16.886 4.0056C16.7403 3.99054 16.5932 4.00594 16.4537 4.05083C16.3142 4.09572 16.1855 4.16913 16.0756 4.26645C15.9664 4.35467 15.8757 4.46373 15.8086 4.58735C15.7415 4.71097 15.6993 4.84672 15.6845 4.9868C15.6697 5.12688 15.6825 5.26852 15.7223 5.40358C15.7621 5.53865 15.828 5.66447 15.9162 5.77382L19.295 10H2.5C1.67157 10 1 10.6716 1 11.5C1 12.3284 1.67157 13 2.5 13H19.2722L15.7462 17.2448C15.6568 17.3528 15.5894 17.4776 15.5479 17.6118C15.5064 17.7461 15.4917 17.8873 15.5045 18.0273C15.5173 18.1674 15.5575 18.3035 15.6227 18.4278C15.6878 18.5522 15.7768 18.6624 15.8843 18.7522Z" fill="#8A489C"/>
</svg>
