<svg width="65" height="65" viewBox="0 0 65 65" fill="none" xmlns="http://www.w3.org/2000/svg">
<g clip-path="url(#clip0_1630_20707)">
<path d="M10.6453 9.15593C17.2467 8.07131 25.734 6.95858 32.4874 7.00123C38.3613 7.03833 46.16 8.0041 52.6592 8.99794C58.1359 9.83543 61.5253 15.1141 59.9175 20.3144C58.1781 25.9407 55.8243 32.3957 53.0569 37.2068C49.7072 43.0301 43.6732 50.1852 38.7094 55.6442C35.2405 59.4591 29.4274 59.6334 25.7404 56.0325C20.0082 50.4341 12.9679 42.9681 9.60935 37.1979C6.56496 31.9676 4.64453 24.9441 3.48952 19.1045C2.55628 14.3861 5.75341 9.95967 10.6453 9.15593Z" stroke="white" stroke-width="4"/>
</g>
<defs>
<clipPath id="clip0_1630_20707">
<rect width="65" height="65" fill="white"/>
</clipPath>
</defs>
</svg>
