<svg width="76" height="59" viewBox="0 0 76 59" fill="none" xmlns="http://www.w3.org/2000/svg">
  <path d="M7.15723 49C8.15723 51 11.4189 51.665 12.6572 52.5C13.8955 53.335 59.8456 53.4362 62.1572 53C64.1225 52.6292 65.6572 52 68.6572 50" stroke="white" stroke-width="2" stroke-linecap="round" />
  <path d="M23.1572 6C23.6572 6.5 24.6572 7.9 24.6572 9.5C24.6572 11.5 21.1572 12.5 21.6572 15.5C22.0572 17.9 23.4906 18.8333 24.1572 19" stroke="white" stroke-width="2" stroke-linecap="round" />
  <path d="M38.1573 1C38.6573 1.5 39.6573 2.9 39.6573 4.5C39.6573 6.5 36.1573 7.5 36.6573 10.5C37.0573 12.9 38.4906 13.8333 39.1573 14" stroke="white" stroke-width="2" stroke-linecap="round" />
  <path d="M52.7061 5C53.2061 5.5 54.2061 6.9 54.2061 8.5C54.2061 10.5 50.7061 11.5 51.2061 14.5C51.6061 16.9 53.0394 17.8333 53.7061 18" stroke="white" stroke-width="2" stroke-linecap="round" />
  <path d="M64.6576 58H12.1576C7.15757 58 -0.342426 52 1.65757 45C6.65757 25.5 29.6576 23 39.1576 23C46.7576 23 54.3242 25.3333 57.1576 26.5C62.8242 28.8333 74.2576 35.8 74.6576 45C75.0576 54.2 68.1576 57.5 64.6576 58Z" stroke="white" stroke-width="2" stroke-linecap="round" />
  <path d="M16.1572 28C14.157 31 12.2572 35.9 12.6572 37.5C13.1572 39.5 16.4074 40 17.6574 37.5C19.1574 34.5 19.6574 28.5 26.6574 24.5" stroke="white" stroke-width="2" stroke-linecap="round" />
  <path d="M60.9224 28.7398C53.481 31.8425 52.2421 37.7344 50.3823 40.5256C48.8324 42.8517 45.6691 41.9532 45.4205 39.9067C45.2217 38.2694 47.7134 33.6423 50.0696 30.913C51.5988 29.2753 54.8572 26 55.6572 26" stroke="white" stroke-width="2" stroke-linecap="round" />
  <path d="M44.1572 24C37.1841 28.6282 36.686 35.5704 35.1918 39.0415C33.9466 41.9341 30.7088 41.3556 30.2107 39.0415C29.8123 37.1902 31.7047 31.5208 33.6973 28.0496C34.6839 26.5331 36.9572 23.4 38.1572 23" stroke="white" stroke-width="2" stroke-linecap="round" />
</svg>
