<svg width="71" height="69" viewBox="0 0 71 69" fill="none" xmlns="http://www.w3.org/2000/svg">
  <path d="M69.5182 32H2.01816C1.21816 48.4 13.3515 58.8333 19.5182 62V68H51.5182V62C66.3182 54.8 69.6848 39 69.5182 32Z" stroke="white" stroke-width="2" stroke-linecap="round" stroke-linejoin="round" />
  <path d="M19.5195 62H52.0195" stroke="white" stroke-width="2" stroke-linecap="round" />
  <path d="M48.5195 56C53.9136 52.3582 56.391 49.7947 59.5195 44" stroke="white" stroke-width="2" stroke-linecap="round" />
  <path d="M62.0195 37C61.5411 38.6716 61.2285 39.5498 60.5195 41" stroke="white" stroke-width="2" stroke-linecap="round" />
  <path d="M16.0195 4C16.0195 2.34315 17.3627 1 19.0195 1H33.0195C34.6764 1 36.0195 2.34315 36.0195 4V31H16.0195V4Z" stroke="white" stroke-width="2" />
  <path d="M20.5195 1V31" stroke="white" stroke-width="2" stroke-linecap="round" />
  <path d="M26.0195 1V31.5" stroke="white" stroke-width="2" stroke-linecap="round" />
  <path d="M31.5195 1V31.5" stroke="white" stroke-width="2" stroke-linecap="round" />
  <path d="M36.0195 5H69.0195V9H36.0195V5Z" stroke="white" stroke-width="2" />
  <path d="M36.0195 14H69.0195V18H36.0195V14Z" stroke="white" stroke-width="2" />
  <path d="M16.0195 18L11.0195 18C9.91496 18 9.01953 17.1046 9.01953 16C9.01953 14.8954 9.91496 14 11.0195 14L16.0195 14L16.0195 18Z" stroke="white" stroke-width="2" />
  <path d="M16.0195 9L11.0195 9C9.91496 9 9.01953 8.10457 9.01953 7C9.01953 5.89543 9.91496 5 11.0195 5L16.0195 5L16.0195 9Z" stroke="white" stroke-width="2" />
</svg>
