<svg width="54" height="63" viewBox="0 0 54 63" fill="none" xmlns="http://www.w3.org/2000/svg">
  <path d="M8.52092 58.3857L1.14809 2.12995C1.06962 1.53118 1.53572 1 2.13961 1H52.7818C52.8991 1 52.9912 1.10053 52.981 1.21741L47.9893 58.3481C47.952 58.7756 47.6411 59.1331 47.2236 59.2327C32.6292 62.7151 24.0882 62.8063 9.27914 59.2267C8.87848 59.1299 8.57448 58.7944 8.52092 58.3857Z" stroke="white" stroke-width="2" />
  <path d="M47.9268 59.0635L52.9999 1" stroke="white" stroke-width="2" stroke-linecap="round" />
  <path d="M8.60938 59.0634C15.7964 61.1672 33.7216 64.1124 47.9264 59.0634" stroke="white" stroke-width="2" />
  <path d="M6.07324 4.78687H49.1952" stroke="white" stroke-linecap="round" />
  <path d="M9 18H31" stroke="white" stroke-linecap="round" />
  <path d="M9 26H41" stroke="white" stroke-linecap="round" />
</svg>
