<svg width="50" height="78" viewBox="0 0 50 78" fill="none" xmlns="http://www.w3.org/2000/svg">
<path d="M28 21V10.5C27.8333 10 27 7.3 25 6.5C23 5.7 13.6667 2.5 9.5 1L8 5.5L22 10.5C22 10.5 23.5 11.1515 23.5 12C23.5 13.2 23.5 18.5 23.5 21" stroke="#CD3B8E" stroke-width="2" stroke-linecap="round" stroke-linejoin="round"/>
<path d="M10.5 77L6 34H44.5L39 77H10.5Z" stroke="#CD3B8E" stroke-width="2" stroke-linejoin="round"/>
<path d="M13 29H47C47.6667 29.1667 49 29.9 49 31.5C49 33.1 47.6667 33.8333 47 34H3C2.33333 33.8333 1 33 1 31C1 29 2.33333 28.5 3 28.5H6L9 22H41L44 28.5" stroke="#CD3B8E" stroke-width="2" stroke-linecap="round" stroke-linejoin="round"/>
<path d="M38 41L35 61" stroke="#CD3B8E" stroke-width="2" stroke-linecap="round" stroke-linejoin="round"/>
<path d="M34.212 66.0285L33.4295 70.229" stroke="#CD3B8E" stroke-width="2" stroke-linecap="round" stroke-linejoin="round"/>
</svg>
